<mxfile host="app.diagrams.net" agent="Mozilla/5.0 (Macintosh; Intel Mac OS X 10_15_7) AppleWebKit/537.36 (KHTML, like Gecko) Chrome/138.0.0.0 Safari/537.36" version="26.2.15">
  <diagram name="Page-1" id="5f0bae14-7c28-e335-631c-24af17079c00">
    <mxGraphModel dx="3166" dy="1952" grid="1" gridSize="10" guides="1" tooltips="1" connect="1" arrows="1" fold="1" page="1" pageScale="1" pageWidth="1100" pageHeight="850" background="none" math="0" shadow="0">
      <root>
        <mxCell id="0" />
        <mxCell id="1" parent="0" />
        <mxCell id="39150e848f15840c-2" value="RPA市场/旧任务调度页面" style="verticalAlign=top;align=left;spacingTop=8;spacingLeft=2;spacingRight=12;shape=cube;size=10;direction=south;fontStyle=4;html=1;rounded=0;shadow=0;comic=0;labelBackgroundColor=none;strokeWidth=1;fontFamily=Verdana;fontSize=12" parent="1" vertex="1">
          <mxGeometry x="730" y="30" width="330" height="220" as="geometry" />
        </mxCell>
        <mxCell id="39150e848f15840c-3" value="聚协云客户端&lt;div&gt;&lt;br&gt;&lt;/div&gt;" style="verticalAlign=top;align=left;spacingTop=8;spacingLeft=2;spacingRight=12;shape=cube;size=10;direction=south;fontStyle=4;html=1;rounded=0;shadow=0;comic=0;labelBackgroundColor=none;strokeWidth=1;fontFamily=Verdana;fontSize=12;fillColor=#dae8fc;strokeColor=#6c8ebf;" parent="1" vertex="1">
          <mxGeometry x="370" y="420" width="280" height="220" as="geometry" />
        </mxCell>
        <mxCell id="39150e848f15840c-8" value="增/删/改/查" style="html=1;rounded=0;shadow=0;comic=0;labelBackgroundColor=none;strokeWidth=1;fontFamily=Verdana;fontSize=12;align=center;" parent="1" vertex="1">
          <mxGeometry x="760" y="70" width="110" height="50" as="geometry" />
        </mxCell>
        <mxCell id="39150e848f15840c-17" style="edgeStyle=orthogonalEdgeStyle;rounded=0;html=1;labelBackgroundColor=none;startArrow=classicThin;startFill=1;startSize=8;endArrow=none;endFill=0;endSize=16;fontFamily=Verdana;fontSize=12;" parent="1" source="39150e848f15840c-3" target="39150e848f15840c-2" edge="1">
          <mxGeometry relative="1" as="geometry">
            <Array as="points">
              <mxPoint x="695" y="485" />
            </Array>
          </mxGeometry>
        </mxCell>
        <mxCell id="39150e848f15840c-18" style="edgeStyle=orthogonalEdgeStyle;rounded=0;html=1;labelBackgroundColor=none;startArrow=none;startFill=0;endArrow=classic;endFill=1;fontFamily=Verdana;fontSize=12;" parent="1" source="39150e848f15840c-3" edge="1">
          <mxGeometry relative="1" as="geometry">
            <Array as="points">
              <mxPoint x="285" y="485" />
            </Array>
            <mxPoint x="285" y="260" as="targetPoint" />
          </mxGeometry>
        </mxCell>
        <mxCell id="SNhEaH1-k5YaDJULe84w-1" value="禁用/启用" style="html=1;rounded=0;shadow=0;comic=0;labelBackgroundColor=none;strokeWidth=1;fontFamily=Verdana;fontSize=12;align=center;" vertex="1" parent="1">
          <mxGeometry x="760" y="140" width="110" height="50" as="geometry" />
        </mxCell>
        <mxCell id="SNhEaH1-k5YaDJULe84w-3" value="同步旧的本地数据" style="html=1;rounded=0;shadow=0;comic=0;labelBackgroundColor=none;strokeWidth=1;fontFamily=Verdana;fontSize=12;align=center;" vertex="1" parent="1">
          <mxGeometry x="890" y="70" width="110" height="50" as="geometry" />
        </mxCell>
        <mxCell id="SNhEaH1-k5YaDJULe84w-8" value="本地调度器&lt;br&gt;node-schedule" style="shape=cylinder3;whiteSpace=wrap;html=1;boundedLbl=1;backgroundOutline=1;size=15;" vertex="1" parent="1">
          <mxGeometry x="445" y="90" width="130" height="170" as="geometry" />
        </mxCell>
        <mxCell id="SNhEaH1-k5YaDJULe84w-11" value="开放数据接口API" style="html=1;rounded=0;shadow=0;comic=0;labelBackgroundColor=none;strokeWidth=1;fontFamily=Verdana;fontSize=12;align=center;" vertex="1" parent="1">
          <mxGeometry x="380" y="450" width="110" height="50" as="geometry" />
        </mxCell>
        <mxCell id="SNhEaH1-k5YaDJULe84w-12" value="调度任务注册\删除" style="html=1;rounded=0;shadow=0;comic=0;labelBackgroundColor=none;strokeWidth=1;fontFamily=Verdana;fontSize=12;align=center;" vertex="1" parent="1">
          <mxGeometry x="380" y="510" width="110" height="50" as="geometry" />
        </mxCell>
        <mxCell id="SNhEaH1-k5YaDJULe84w-13" value="任务参数组装" style="html=1;rounded=0;shadow=0;comic=0;labelBackgroundColor=none;strokeWidth=1;fontFamily=Verdana;fontSize=12;align=center;" vertex="1" parent="1">
          <mxGeometry x="500" y="450" width="110" height="50" as="geometry" />
        </mxCell>
        <mxCell id="SNhEaH1-k5YaDJULe84w-14" value="任务参数组装" style="html=1;rounded=0;shadow=0;comic=0;labelBackgroundColor=none;strokeWidth=1;fontFamily=Verdana;fontSize=12;align=center;" vertex="1" parent="1">
          <mxGeometry x="500" y="510" width="110" height="50" as="geometry" />
        </mxCell>
        <mxCell id="SNhEaH1-k5YaDJULe84w-15" value="任务执行" style="html=1;rounded=0;shadow=0;comic=0;labelBackgroundColor=none;strokeWidth=1;fontFamily=Verdana;fontSize=12;align=center;" vertex="1" parent="1">
          <mxGeometry x="500" y="580" width="110" height="50" as="geometry" />
        </mxCell>
        <mxCell id="SNhEaH1-k5YaDJULe84w-19" style="edgeStyle=orthogonalEdgeStyle;rounded=0;orthogonalLoop=1;jettySize=auto;html=1;exitX=0;exitY=0;exitDx=115;exitDy=290;exitPerimeter=0;" edge="1" parent="1" source="SNhEaH1-k5YaDJULe84w-16" target="SNhEaH1-k5YaDJULe84w-18">
          <mxGeometry relative="1" as="geometry" />
        </mxCell>
        <mxCell id="SNhEaH1-k5YaDJULe84w-22" style="edgeStyle=orthogonalEdgeStyle;rounded=0;orthogonalLoop=1;jettySize=auto;html=1;entryX=1;entryY=0.5;entryDx=0;entryDy=0;entryPerimeter=0;" edge="1" parent="1" source="SNhEaH1-k5YaDJULe84w-16" target="SNhEaH1-k5YaDJULe84w-21">
          <mxGeometry relative="1" as="geometry" />
        </mxCell>
        <mxCell id="SNhEaH1-k5YaDJULe84w-16" value="服务器端" style="verticalAlign=top;align=left;spacingTop=8;spacingLeft=2;spacingRight=12;shape=cube;size=10;direction=south;fontStyle=4;html=1;rounded=0;shadow=0;comic=0;labelBackgroundColor=none;strokeWidth=1;fontFamily=Verdana;fontSize=12;fillColor=#f8cecc;strokeColor=#b85450;" vertex="1" parent="1">
          <mxGeometry x="-80" y="690" width="310" height="220" as="geometry" />
        </mxCell>
        <mxCell id="SNhEaH1-k5YaDJULe84w-17" value="pgsql&lt;div&gt;&lt;br&gt;&lt;/div&gt;" style="shape=cylinder3;whiteSpace=wrap;html=1;boundedLbl=1;backgroundOutline=1;size=15;" vertex="1" parent="1">
          <mxGeometry x="-420" y="480" width="130" height="170" as="geometry" />
        </mxCell>
        <mxCell id="SNhEaH1-k5YaDJULe84w-18" value="&lt;div&gt;Quartz或其他任务调度器&lt;/div&gt;" style="shape=cylinder3;whiteSpace=wrap;html=1;boundedLbl=1;backgroundOutline=1;size=15;" vertex="1" parent="1">
          <mxGeometry x="-420" y="715" width="130" height="170" as="geometry" />
        </mxCell>
        <mxCell id="SNhEaH1-k5YaDJULe84w-20" style="edgeStyle=orthogonalEdgeStyle;rounded=0;orthogonalLoop=1;jettySize=auto;html=1;entryX=1;entryY=0;entryDx=0;entryDy=50;entryPerimeter=0;" edge="1" parent="1" source="SNhEaH1-k5YaDJULe84w-16" target="SNhEaH1-k5YaDJULe84w-17">
          <mxGeometry relative="1" as="geometry">
            <Array as="points">
              <mxPoint x="-190" y="800" />
              <mxPoint x="-190" y="530" />
            </Array>
          </mxGeometry>
        </mxCell>
        <mxCell id="SNhEaH1-k5YaDJULe84w-21" value="消息服务器" style="shape=cylinder3;whiteSpace=wrap;html=1;boundedLbl=1;backgroundOutline=1;size=15;" vertex="1" parent="1">
          <mxGeometry x="-420" y="940" width="130" height="170" as="geometry" />
        </mxCell>
        <mxCell id="SNhEaH1-k5YaDJULe84w-23" value="增" style="html=1;rounded=0;shadow=0;comic=0;labelBackgroundColor=none;strokeWidth=1;fontFamily=Verdana;fontSize=12;align=center;" vertex="1" parent="1">
          <mxGeometry x="100" y="715" width="110" height="40" as="geometry" />
        </mxCell>
        <mxCell id="SNhEaH1-k5YaDJULe84w-25" value="删" style="html=1;rounded=0;shadow=0;comic=0;labelBackgroundColor=none;strokeWidth=1;fontFamily=Verdana;fontSize=12;align=center;" vertex="1" parent="1">
          <mxGeometry x="100" y="760" width="110" height="40" as="geometry" />
        </mxCell>
        <mxCell id="SNhEaH1-k5YaDJULe84w-26" value="改" style="html=1;rounded=0;shadow=0;comic=0;labelBackgroundColor=none;strokeWidth=1;fontFamily=Verdana;fontSize=12;align=center;" vertex="1" parent="1">
          <mxGeometry x="100" y="807" width="110" height="40" as="geometry" />
        </mxCell>
        <mxCell id="SNhEaH1-k5YaDJULe84w-27" value="查" style="html=1;rounded=0;shadow=0;comic=0;labelBackgroundColor=none;strokeWidth=1;fontFamily=Verdana;fontSize=12;align=center;" vertex="1" parent="1">
          <mxGeometry x="100" y="853" width="110" height="40" as="geometry" />
        </mxCell>
        <mxCell id="SNhEaH1-k5YaDJULe84w-29" value="&lt;span style=&quot;font-family: Verdana; text-align: left; text-wrap-mode: nowrap; text-decoration-line: underline;&quot;&gt;本地数据库Sqlite3&lt;/span&gt;&lt;div&gt;&lt;span style=&quot;font-family: Verdana; text-align: left; text-wrap-mode: nowrap; text-decoration-line: underline;&quot;&gt;/单库/单表&lt;/span&gt;&lt;/div&gt;" style="shape=cylinder3;whiteSpace=wrap;html=1;boundedLbl=1;backgroundOutline=1;size=15;" vertex="1" parent="1">
          <mxGeometry x="220" y="90" width="130" height="170" as="geometry" />
        </mxCell>
        <mxCell id="SNhEaH1-k5YaDJULe84w-30" style="edgeStyle=orthogonalEdgeStyle;rounded=0;orthogonalLoop=1;jettySize=auto;html=1;entryX=0.5;entryY=1;entryDx=0;entryDy=0;entryPerimeter=0;" edge="1" parent="1" source="39150e848f15840c-3" target="SNhEaH1-k5YaDJULe84w-8">
          <mxGeometry relative="1" as="geometry" />
        </mxCell>
        <mxCell id="SNhEaH1-k5YaDJULe84w-32" style="edgeStyle=orthogonalEdgeStyle;rounded=0;orthogonalLoop=1;jettySize=auto;html=1;entryX=0;entryY=0;entryDx=105;entryDy=0;entryPerimeter=0;fillColor=#f8cecc;strokeColor=#b85450;" edge="1" parent="1" source="39150e848f15840c-2" target="39150e848f15840c-3">
          <mxGeometry relative="1" as="geometry">
            <Array as="points">
              <mxPoint x="895" y="525" />
            </Array>
          </mxGeometry>
        </mxCell>
        <mxCell id="SNhEaH1-k5YaDJULe84w-33" style="edgeStyle=orthogonalEdgeStyle;rounded=0;orthogonalLoop=1;jettySize=auto;html=1;entryX=0;entryY=0;entryDx=105;entryDy=0;entryPerimeter=0;fillColor=#f8cecc;strokeColor=#b85450;exitX=0;exitY=0;exitDx=105;exitDy=0;exitPerimeter=0;" edge="1" parent="1" source="39150e848f15840c-2" target="SNhEaH1-k5YaDJULe84w-16">
          <mxGeometry relative="1" as="geometry" />
        </mxCell>
        <mxCell id="SNhEaH1-k5YaDJULe84w-34" value="直接从服务器端获取数据" style="edgeLabel;html=1;align=center;verticalAlign=middle;resizable=0;points=[];" vertex="1" connectable="0" parent="SNhEaH1-k5YaDJULe84w-33">
          <mxGeometry x="0.3699" y="-4" relative="1" as="geometry">
            <mxPoint as="offset" />
          </mxGeometry>
        </mxCell>
        <mxCell id="SNhEaH1-k5YaDJULe84w-35" value="用户" style="shape=umlActor;verticalLabelPosition=bottom;verticalAlign=top;html=1;outlineConnect=0;" vertex="1" parent="1">
          <mxGeometry x="880" y="-220" width="30" height="60" as="geometry" />
        </mxCell>
        <mxCell id="SNhEaH1-k5YaDJULe84w-36" style="edgeStyle=orthogonalEdgeStyle;rounded=0;orthogonalLoop=1;jettySize=auto;html=1;entryX=0.045;entryY=0.5;entryDx=0;entryDy=0;entryPerimeter=0;" edge="1" parent="1" source="SNhEaH1-k5YaDJULe84w-35" target="39150e848f15840c-2">
          <mxGeometry relative="1" as="geometry" />
        </mxCell>
        <mxCell id="SNhEaH1-k5YaDJULe84w-39" style="edgeStyle=orthogonalEdgeStyle;rounded=0;orthogonalLoop=1;jettySize=auto;html=1;" edge="1" parent="1" source="SNhEaH1-k5YaDJULe84w-38" target="SNhEaH1-k5YaDJULe84w-3">
          <mxGeometry relative="1" as="geometry" />
        </mxCell>
        <mxCell id="SNhEaH1-k5YaDJULe84w-40" value="第一次进入，如果本地有数据" style="edgeLabel;html=1;align=center;verticalAlign=middle;resizable=0;points=[];" vertex="1" connectable="0" parent="SNhEaH1-k5YaDJULe84w-39">
          <mxGeometry x="0.1172" y="2" relative="1" as="geometry">
            <mxPoint as="offset" />
          </mxGeometry>
        </mxCell>
        <mxCell id="SNhEaH1-k5YaDJULe84w-38" value="&lt;br&gt;&lt;div&gt;同步组件&lt;/div&gt;" style="shape=cylinder3;whiteSpace=wrap;html=1;boundedLbl=1;backgroundOutline=1;size=15;" vertex="1" parent="1">
          <mxGeometry x="1290" y="10" width="130" height="170" as="geometry" />
        </mxCell>
      </root>
    </mxGraphModel>
  </diagram>
</mxfile>
